<svg width="1032" height="811" viewBox="0 0 1032 811" fill="none" xmlns="http://www.w3.org/2000/svg">
<path d="M720.361 2.09272C747.497 -5.482 775.291 11.8332 780.454 39.5292L860.977 471.494C865.962 498.238 847.747 523.775 820.838 527.769L344.306 598.508L367.148 801.153C368.089 809.504 357.163 813.472 352.525 806.464L226.493 615.997L128.098 630.603C103.021 634.326 79.3724 617.904 74.0997 593.106L1.05766 249.593C-4.21294 224.805 10.6941 200.19 35.1026 193.377L720.361 2.09272Z" fill="#FFC61A"/>
<path d="M720.361 2.09272C747.497 -5.482 775.291 11.8332 780.454 39.5292L860.977 471.494C865.962 498.238 847.747 523.775 820.838 527.769L344.306 598.508L367.148 801.153C368.089 809.504 357.163 813.472 352.525 806.464L226.493 615.997L128.098 630.603C103.021 634.326 79.3724 617.904 74.0997 593.106L1.05766 249.593C-4.21294 224.805 10.6941 200.19 35.1026 193.377L720.361 2.09272Z" fill="url(#paint0_linear_1_74)"/>
<path d="M308.97 40.2233C314.196 10.537 345.171 -7.04235 373.337 3.69202L1000.37 242.663C1022.47 251.087 1035.15 274.36 1030.23 297.499L966.53 597.059C961.172 622.256 936.88 638.732 911.488 634.389L815.372 617.952L707.237 781.371C702.599 788.379 691.675 784.411 692.616 776.06L712.42 600.346L272.588 525.13C246.368 520.647 228.794 495.694 233.406 469.496L308.97 40.2233Z" fill="#288784"/>
<path d="M308.97 40.2233C314.196 10.537 345.171 -7.04235 373.337 3.69202L1000.37 242.663C1022.47 251.087 1035.15 274.36 1030.23 297.499L966.53 597.059C961.172 622.256 936.88 638.732 911.488 634.389L815.372 617.952L707.237 781.371C702.599 788.379 691.675 784.411 692.616 776.06L712.42 600.346L272.588 525.13C246.368 520.647 228.794 495.694 233.406 469.496L308.97 40.2233Z" fill="url(#paint1_linear_1_74)"/>
<path d="M804.397 167.975L860.976 471.494C865.961 498.238 847.747 523.776 820.837 527.771L535.609 570.109L272.586 525.131C246.366 520.647 228.793 495.694 233.405 469.496L294.768 120.894L517.628 58.6836L804.397 167.975Z" fill="#FF6600"/>
<path d="M804.397 167.975L860.976 471.494C865.961 498.238 847.747 523.776 820.837 527.771L535.609 570.109L272.586 525.131C246.366 520.647 228.793 495.694 233.405 469.496L294.768 120.894L517.628 58.6836L804.397 167.975Z" fill="url(#paint2_radial_1_74)"/>
<path d="M474.152 136.957C476.609 135.974 479.327 137.605 479.614 140.236L484.14 181.737L519.491 170.676C524.049 169.25 528.833 172.11 529.735 176.799L548.924 276.556C549.73 280.748 553.686 283.569 557.912 282.964L582.808 279.403C586.596 278.861 590.238 281.077 591.497 284.69L634.212 407.314C635.74 411.703 633.22 416.467 628.731 417.673L542.587 440.793L549.508 486.467C549.812 488.48 548.558 490.4 546.592 490.929L502.561 502.784C500.189 503.422 497.807 501.79 497.545 499.347L492.705 454.181L439.154 468.554C434.383 469.835 429.603 466.527 429.119 461.611L404.68 213.274C404.309 209.502 406.636 205.988 410.253 204.856L445.057 193.965L439.477 154.104C439.222 152.281 440.244 150.519 441.953 149.836L474.152 136.957ZM549.979 330.817C549.459 328.698 547.337 327.387 545.21 327.869L477.69 343.173C475.637 343.639 474.296 345.616 474.623 347.695L482.456 397.56C482.827 399.924 485.176 401.435 487.481 400.793L558.309 381.041C560.39 380.46 561.633 378.333 561.119 376.235L549.979 330.817ZM487.776 227.682C487.373 225.236 484.863 223.741 482.52 224.552L460.287 232.249C458.421 232.895 457.306 234.806 457.661 236.749L468.085 293.709C468.507 296.016 470.815 297.467 473.077 296.846L494.568 290.953C496.543 290.411 497.79 288.466 497.457 286.445L487.776 227.682Z" fill="#FFD59E"/>
<defs>
<linearGradient id="paint0_linear_1_74" x1="825.043" y1="59" x2="117.043" y2="810" gradientUnits="userSpaceOnUse">
<stop offset="0.462692" stop-color="#FFC61A"/>
<stop offset="1" stop-color="#FF941A"/>
</linearGradient>
<linearGradient id="paint1_linear_1_74" x1="167.043" y1="-49" x2="1031.04" y2="729.001" gradientUnits="userSpaceOnUse">
<stop stop-color="#76D5B7"/>
<stop offset="1" stop-color="#217E7B"/>
</linearGradient>
<radialGradient id="paint2_radial_1_74" cx="0" cy="0" r="1" gradientUnits="userSpaceOnUse" gradientTransform="translate(547.234 314.396) rotate(90) scale(274.604 337.803)">
<stop stop-color="#FFA200"/>
<stop offset="1" stop-color="#FF6600"/>
</radialGradient>
</defs>
</svg>
